<svg width="1043" height="1001" viewBox="0 0 1043 1001" fill="none" xmlns="http://www.w3.org/2000/svg">
<circle cx="362.932" cy="881.513" r="100.463" transform="rotate(-12.2472 362.932 881.513)" fill="#3138EE"/>
<circle cx="1139.54" cy="168.941" r="104.081" transform="rotate(-12.2472 1139.54 168.941)" fill="#3138EE"/>
<circle cx="1046.62" cy="822.269" r="143.651" transform="rotate(-13.8836 1046.62 822.269)" fill="#3138EE"/>
<path fill-rule="evenodd" clip-rule="evenodd" d="M1004.85 484.82C1016.02 535.547 986.876 585.767 938.778 602.03C868.573 632.296 772.894 697.609 813.744 831.77C814.93 835.663 815.896 839.267 816.657 842.595C817.402 845.39 818.054 848.231 818.61 851.115C831.517 918.027 787.737 982.732 720.826 995.639C653.914 1008.55 589.208 964.766 576.301 897.855C575.472 893.557 574.877 889.268 574.507 885.001C574.385 884.052 574.278 883.079 574.184 882.081C562.929 761.685 434.429 674.426 321.236 672.447C256.377 676.681 156.774 733.408 181.741 860.222C182.006 861.568 182.245 862.881 182.459 864.162C182.496 864.324 182.532 864.486 182.568 864.648C193.405 913.837 162.315 962.497 113.126 973.335C63.9373 984.172 15.2765 953.082 4.43914 903.893C-4.64293 862.671 15.7208 821.82 51.5058 803.29C52.0385 802.985 52.6039 802.698 53.2026 802.428L53.3457 802.364C55.0291 801.54 56.7452 800.765 58.4926 800.041C133.344 766.186 227.143 719.387 204.692 596.885C203.897 594.165 203.222 591.384 202.674 588.546C193.225 539.557 225.278 492.183 274.267 482.733C320.227 473.868 364.765 501.532 377.9 545.439C431.874 672.292 504.457 760.621 665.068 742.683C666.434 742.53 667.75 741.944 669.06 741.529C669.487 741.394 669.949 741.286 670.447 741.205C741.688 729.645 829.83 690.567 808.141 529.454C808.045 529.044 807.952 528.633 807.861 528.22C795.876 473.824 830.257 420.012 884.653 408.027C939.049 396.043 992.861 430.424 1004.85 484.82Z" fill="#3138EE"/>
<circle cx="1085.75" cy="153.585" r="85.0255" transform="rotate(-21.2483 1085.75 153.585)" fill="#3138EE"/>
<circle cx="829.955" cy="193.604" r="85.0255" transform="rotate(-21.2483 829.955 193.604)" fill="#3138EE"/>
<path d="M947.491 -369.872C1007.2 -250.009 925.709 -127.681 890.853 -68.0131C867.458 -27.9655 1083.29 48.9833 1040.49 -59.9135C997.685 -168.81 1004.3 -294.603 1101 -357.668C1168.44 -401.654 887.781 -489.735 947.491 -369.872Z" fill="#3138EE"/>
<path fill-rule="evenodd" clip-rule="evenodd" d="M574.173 465.847C535.209 484.363 512.634 527.836 522.181 571.814C533.313 623.1 583.913 655.651 635.199 644.518C686.485 633.385 719.036 582.785 707.903 531.499C707.537 529.812 707.128 528.145 706.678 526.499C706.653 526.379 706.628 526.26 706.602 526.141C672.939 366.518 773.234 324.62 844.743 313.243C845.173 313.175 845.579 313.086 845.96 312.979C847.052 312.67 848.153 312.289 849.285 312.204C978.093 302.544 1077.43 402.873 1077.43 517.205C1077.43 557.699 1102.38 552.633 1133.04 529.024C1137.3 525.746 1143.59 527.124 1146.42 531.695C1165.52 562.589 1202.3 580.116 1240.12 572.942C1289.13 563.645 1321.33 516.37 1312.04 467.352C1311.5 464.506 1310.83 461.717 1310.04 458.99C1287.42 333.522 1362.46 285.296 1428.34 263.944C1428.39 263.927 1428.44 263.91 1428.49 263.893C1468.75 254.266 1494.1 214.158 1485.28 173.512C1476.34 132.335 1435.71 106.2 1394.54 115.139C1353.36 124.077 1327.22 164.704 1336.16 205.881C1336.45 207.192 1336.76 208.487 1337.11 209.767C1337.3 210.839 1337.5 211.934 1337.72 213.05C1355.37 304.193 1288.16 353.837 1237.33 378.821C1236.85 379.06 1236.34 379.24 1235.82 379.395C1235.13 379.6 1234.4 379.85 1233.62 380.144C1137.15 416.779 960.652 311.615 941.44 172.666C941.378 172.215 941.313 171.769 941.246 171.327C940.908 166.538 940.286 161.718 939.37 156.886C926.67 89.9346 862.101 45.9545 795.149 58.6537C728.198 71.3529 684.218 135.923 696.917 202.874C697.935 208.241 699.286 213.461 700.946 218.516C701.182 219.722 701.442 220.961 701.727 222.234C729.219 345.264 607.668 446.365 574.173 465.847ZM1092.87 -87.1313C1152.6 2.64642 1128.35 75.8372 1075.81 107.663C1043.71 127.106 1261.14 224.265 1202.51 138.531C1143.87 52.7966 1215.3 -69.0137 1234.48 -87.1312C1260.8 -111.986 1033.14 -176.909 1092.87 -87.1313Z" fill="#3138EE"/>
<path fill-rule="evenodd" clip-rule="evenodd" d="M384.244 979.689C438.465 967.92 472.879 914.423 461.109 860.202C449.339 805.981 395.843 771.567 341.622 783.337C287.4 795.107 252.987 848.603 264.757 902.824C276.526 957.046 330.023 991.459 384.244 979.689Z" fill="#3138EE"/>
</svg>
