<svg width="727" height="721" viewBox="0 0 727 721" fill="none" xmlns="http://www.w3.org/2000/svg">
<circle cx="90.0285" cy="86.6965" r="86.6965" fill="#151FFF"/>
<circle cx="361.789" cy="651.891" r="68.3569" fill="#151FFF"/>
<circle cx="658.558" cy="651.891" r="68.3569" fill="#151FFF"/>
<circle cx="71.6889" cy="651.891" r="68.3569" fill="#151FFF"/>
<circle cx="86.6946" cy="376.796" r="86.6965" fill="#151FFF"/>
<circle cx="363.456" cy="100.034" r="100.034" fill="#151FFF"/>
<circle cx="633.549" cy="376.797" r="93.3655" fill="#151FFF"/>
<circle cx="363.457" cy="376.796" r="130.045" fill="#151FFF"/>
<circle cx="640.218" cy="86.6965" r="86.6965" fill="#151FFF"/>
<path d="M263.248 98.5938C251.424 253.793 152.166 283.184 73.8047 291.02C23.7877 296.022 170.527 510.349 173.622 372.59C176.718 234.832 346.781 203.402 381.793 198.4C429.824 191.538 275.072 -56.6053 263.248 98.5938Z" fill="#151FFF"/>
<path d="M538.793 370.651C516.075 512.891 480.497 579.541 356.78 583.533C305.103 585.2 391.425 775.955 428.303 669.164C465.18 562.374 523.505 493.114 657.167 467.346C693.308 460.379 561.511 228.41 538.793 370.651Z" fill="#151FFF"/>
<path d="M556.152 65.8225C524.428 179.734 516.45 225.846 348.547 247.583C190.385 268.059 483.63 584.475 494.074 372.183C504.518 159.892 660.295 191.495 690.237 156.724C741.922 96.704 587.876 -48.0891 556.152 65.8225Z" fill="#151FFF"/>
</svg>
