<svg width="3293" height="613" viewBox="0 0 3293 613" fill="none" xmlns="http://www.w3.org/2000/svg">
<path d="M627.605 152.768C627.605 87.9063 662.531 51.1095 732.383 51.1095H923.227V487.682H830.299V124.079H754.835C734.254 124.079 719.909 132.187 719.909 159.629V169.608H786.019V242.578H719.909V487.682H627.605V242.578H586.443V169.608H627.605V152.768ZM1146.96 498.908C1049.04 498.908 971.079 434.669 971.079 316.171C971.079 197.673 1049.04 133.435 1146.96 133.435C1244.87 133.435 1322.83 197.673 1322.83 316.171C1322.83 434.669 1244.87 498.908 1146.96 498.908ZM1070.24 316.171C1070.24 389.765 1098.31 428.433 1146.96 428.433C1195.6 428.433 1223.67 389.765 1223.67 316.171C1223.67 242.578 1195.6 203.91 1146.96 203.91C1098.31 203.91 1070.24 242.578 1070.24 316.171ZM1428.63 487.682L1333.83 144.661H1430.5L1482.89 366.689H1484.13L1530.91 144.661H1623.84L1670.61 366.689H1671.86L1724.25 144.661H1820.92L1722.38 487.682H1625.08L1577.06 285.611H1575.81L1527.79 487.682H1428.63ZM1924 612.417C1857.89 612.417 1827.33 582.48 1827.33 541.318C1827.33 510.134 1845.41 484.563 1884.08 477.079V475.832C1859.13 464.606 1843.54 443.401 1843.54 414.088C1843.54 380.41 1865.99 357.957 1895.31 352.968L1903.41 351.721V350.473C1864.12 333.634 1839.18 299.332 1839.18 252.556C1839.18 175.221 1905.91 133.435 1982.62 133.435C2033.76 133.435 2078.67 152.768 2104.24 186.447H2106.11C2107.36 160.253 2122.32 144.661 2147.27 144.661H2165.36V217.631H2140.41C2129.81 217.631 2125.44 221.373 2124.2 231.351C2125.44 238.212 2126.07 245.072 2126.07 252.556C2126.07 326.774 2065.57 371.055 1986.36 371.055H1952.06C1934.6 371.055 1924 376.668 1924 390.388C1924 404.109 1933.97 410.346 1952.06 410.346H2051.85C2126.07 410.346 2168.48 449.014 2168.48 510.758C2168.48 573.125 2126.07 612.417 2051.85 612.417H1924ZM1904.04 516.994C1904.04 538.199 1917.76 551.92 1947.7 551.92H2034.39C2062.45 551.92 2077.42 538.823 2077.42 516.371C2077.42 494.542 2062.45 480.821 2034.39 480.821H1947.7C1918.38 480.821 1904.04 495.166 1904.04 516.994ZM1925.87 256.922C1925.87 293.095 1950.81 310.558 1982.62 310.558C2014.43 310.558 2040 293.095 2040 256.922C2040 221.373 2014.43 203.91 1982.62 203.91C1950.81 203.91 1925.87 221.373 1925.87 256.922ZM2205.45 487.682V144.661H2297.13V195.178H2298.38C2315.22 161.5 2338.3 144.661 2378.21 144.661H2411.89V217.631H2359.5C2317.71 217.631 2298.38 237.588 2298.38 287.482V487.682H2205.45ZM2445.42 487.682V144.661H2538.35V487.682H2445.42ZM2444.8 96.6377V9.32329H2539.6V96.6377H2444.8ZM2733.5 498.908C2654.29 498.908 2585.69 435.917 2585.69 316.171C2585.69 196.426 2654.29 133.435 2733.5 133.435C2782.15 133.435 2820.19 157.134 2840.15 196.426H2841.4C2840.15 184.576 2840.15 174.597 2840.15 163.371V0.591845H2933.08V487.682H2840.77V472.713C2840.77 459.616 2840.77 448.39 2841.4 435.917H2840.15C2820.19 475.208 2782.15 498.908 2733.5 498.908ZM2684.85 316.171C2684.85 384.775 2712.3 428.433 2762.81 428.433C2813.95 428.433 2840.77 384.775 2840.77 316.171C2840.77 247.567 2813.95 203.91 2762.81 203.91C2712.3 203.91 2684.85 247.567 2684.85 316.171ZM3136.35 498.908C3033.44 498.908 2979.81 450.261 2978.56 374.173H3074.61C3075.23 412.217 3098.93 428.433 3135.73 428.433C3173.77 428.433 3193.1 410.97 3193.1 384.152C3193.1 360.452 3176.89 344.86 3138.22 344.86H3100.8C3026.58 344.86 2984.8 305.569 2984.8 246.32C2984.8 178.963 3041.55 133.435 3134.48 133.435C3232.4 133.435 3284.78 182.705 3286.03 255.675H3192.48C3191.86 221.996 3172.52 203.91 3135.73 203.91C3102.05 203.91 3082.71 218.254 3082.71 242.578C3082.71 265.654 3099.55 277.503 3130.11 277.503H3171.28C3256.72 277.503 3292.27 323.655 3292.27 381.033C3292.27 450.885 3238.63 498.908 3136.35 498.908Z" fill="black"/>
<path d="M55.8038 154.046C85.483 154.046 109.543 129.986 109.543 100.307C109.543 70.6276 85.483 46.5679 55.8038 46.5679C26.1247 46.5679 2.06493 70.6276 2.06493 100.307C2.06493 129.986 26.1247 154.046 55.8038 154.046Z" fill="#151FFF"/>
<path d="M224.255 493.014C233.467 493.014 241.992 490.074 248.944 485.082C252.645 483.18 256.37 479.439 259.999 473.405C261.1 471.679 262.08 469.867 262.927 467.983C263.823 466.147 264.71 464.159 265.588 462.011C297.265 384.503 324.494 352.226 407.345 336.254C407.843 336.158 408.29 335.993 408.687 335.763C432.876 328.828 450.578 306.544 450.578 280.125C450.578 248.163 424.668 222.253 392.705 222.253C368.501 222.253 347.768 237.111 339.129 258.204C336.965 262.621 335.207 268.575 333.971 276.317C319.889 364.485 297.836 405.798 221.15 408.272C220.29 408.3 219.484 408.421 218.733 408.629C197.941 411.334 181.884 429.114 181.884 450.643C181.884 474.044 200.854 493.014 224.255 493.014Z" fill="#151FFF"/>
<path d="M450.578 450.643C450.578 474.044 431.608 493.014 408.207 493.014C384.806 493.014 365.836 474.044 365.836 450.643C365.836 427.242 384.806 408.272 408.207 408.272C431.608 408.272 450.578 427.242 450.578 450.643Z" fill="#151FFF"/>
<path d="M44.436 493.014C67.8369 493.014 86.807 474.044 86.807 450.643C86.807 427.242 67.8369 408.272 44.436 408.272C21.0351 408.272 2.06493 427.242 2.06493 450.643C2.06493 474.044 21.0351 493.014 44.436 493.014Z" fill="#151FFF"/>
<path d="M107.476 280.125C107.476 309.805 83.4161 333.864 53.7369 333.864C24.0578 333.864 -0.00195312 309.805 -0.00195312 280.125C-0.00195312 250.697 23.6523 226.794 52.9847 226.392C100.523 219.691 160.361 194.347 163.282 109.61L163.288 109.458C163.284 109.164 163.282 108.869 163.282 108.574C163.282 74.3291 191.043 46.5679 225.288 46.5679C259.533 46.5679 287.294 74.3291 287.294 108.574C287.294 138.632 265.907 163.695 237.519 169.375C237.245 169.446 236.957 169.503 236.657 169.546L236.523 169.565C234.702 169.899 232.852 170.153 230.979 170.323C200.795 174.479 109.4 189.377 107.477 274.958C107.459 275.755 107.434 276.536 107.403 277.299C107.451 278.235 107.476 279.177 107.476 280.125Z" fill="#151FFF"/>
<path d="M225.288 360.734C269.807 360.734 305.896 324.644 305.896 280.125C305.896 278.455 305.846 276.796 305.745 275.151C306.496 270.672 306.956 265.568 307.086 259.788C309.021 173.653 361.406 162.617 397.383 155.038C399.874 154.513 402.286 154.005 404.598 153.49C408.838 152.877 412.918 151.768 416.777 150.226C420.638 148.893 423.862 147.323 426.242 145.296C440.897 135.698 450.578 119.133 450.578 100.307C450.578 70.6276 426.518 46.5679 396.839 46.5679C380.675 46.5679 366.178 53.7045 356.326 64.9988C353.785 66.8674 351.759 69.574 350.408 73.2342C347.015 79.0395 344.681 85.5382 343.668 92.466C329.534 131.775 305.308 182.98 220.884 199.635C178.414 201.922 144.68 237.084 144.68 280.125C144.68 324.644 180.769 360.734 225.288 360.734Z" fill="#151FFF"/>
</svg>
